<svg xmlns="http://www.w3.org/2000/svg" xmlns:xlink="http://www.w3.org/1999/xlink" width="500" zoomAndPan="magnify" viewBox="0 0 375 374.999991" height="500" preserveAspectRatio="xMidYMid meet" version="1.0"><path fill="#000000" d="M 187.5 375 C 84.117188 375 0 290.882812 0 187.5 C 0 84.117188 84.117188 0 187.5 0 C 290.882812 0 375 84.117188 375 187.5 C 375 290.882812 290.882812 375 187.5 375 Z M 187.5 27.1875 C 99.082031 27.1875 27.164062 99.082031 27.164062 187.5 C 27.164062 275.894531 99.082031 347.8125 187.5 347.8125 C 275.894531 347.8125 347.835938 275.894531 347.835938 187.5 C 347.835938 99.082031 275.894531 27.1875 187.5 27.1875 Z M 187.5 27.1875 " fill-opacity="1" fill-rule="nonzero"/><path fill="#000000" d="M 191.367188 284.800781 C 189.925781 284.25 188.367188 283.359375 188.367188 279.585938 C 188.367188 278.027344 188.613281 276.222656 189.164062 274.019531 L 212.847656 159.210938 C 213.375 156.515625 213.644531 153.691406 213.644531 150.878906 C 213.644531 143.460938 211.359375 137.8125 206.847656 134.074219 C 196.734375 125.765625 179.039062 127.394531 149.601562 137.34375 L 146.742188 138.304688 L 145.570312 153.117188 L 150.515625 153.117188 C 165.503906 153.117188 169.125 154.289062 169.875 154.652344 C 170.882812 155.132812 171.433594 155.707031 171.433594 157.394531 C 171.433594 158.332031 171.316406 159.386719 171.070312 160.558594 C 170.777344 162.117188 170.425781 163.921875 170.085938 165.867188 L 148.382812 271.3125 C 147.375 276.621094 146.847656 281.179688 146.847656 284.8125 C 146.847656 293.214844 149.273438 299.707031 154.007812 304.089844 C 158.648438 308.367188 165.011719 310.546875 172.910156 310.546875 C 182.15625 310.546875 194.566406 307.980469 210.832031 302.71875 L 213.738281 301.78125 L 214.910156 286.769531 L 210 286.769531 C 198.878906 286.769531 193.746094 285.691406 191.367188 284.800781 Z M 191.367188 284.800781 " fill-opacity="1" fill-rule="nonzero"/><path fill="#000000" d="M 222.539062 70.886719 C 218.074219 66.632812 212.332031 64.453125 205.488281 64.453125 C 198.398438 64.453125 192.398438 66.785156 187.675781 71.367188 C 182.917969 75.972656 180.492188 82.171875 180.492188 89.8125 C 180.492188 96.84375 182.800781 102.679688 187.335938 107.203125 C 191.871094 111.761719 197.683594 114.070312 204.574219 114.070312 C 211.605469 114.070312 217.546875 111.621094 222.292969 106.839844 C 227.003906 102.058594 229.382812 95.847656 229.382812 88.371094 C 229.382812 81.070312 227.097656 75.1875 222.539062 70.886719 Z M 222.539062 70.886719 " fill-opacity="1" fill-rule="nonzero"/></svg>