<svg xmlns="http://www.w3.org/2000/svg" xmlns:xlink="http://www.w3.org/1999/xlink" width="500" zoomAndPan="magnify" viewBox="0 0 375 374.999991" height="500" preserveAspectRatio="xMidYMid meet" version="1.0"><path fill="#000000" d="M 210.5625 77.308594 L 210.5625 23.050781 L 82.828125 23.050781 L 162.398438 50.003906 C 167.203125 51.644531 170.367188 56.097656 170.367188 61.136719 L 170.367188 301.371094 L 210.5625 301.371094 L 210.5625 247.113281 C 210.5625 240.550781 215.71875 235.394531 222.28125 235.394531 C 228.726562 235.394531 234 240.550781 234 247.113281 L 234 313.089844 C 234 319.535156 228.726562 324.808594 222.28125 324.808594 L 170.367188 324.808594 L 170.367188 362.894531 C 170.367188 366.644531 168.609375 370.277344 165.5625 372.386719 C 163.453125 373.910156 161.109375 374.613281 158.648438 374.613281 C 157.476562 374.613281 156.1875 374.378906 154.898438 374.027344 L 7.945312 324.222656 C 7.828125 324.105469 7.710938 323.988281 7.476562 323.988281 C 7.125 323.753906 6.773438 323.519531 6.421875 323.402344 C 5.484375 322.933594 4.78125 322.347656 3.960938 321.761719 C 3.609375 321.410156 3.375 321.058594 3.023438 320.707031 C 2.4375 320.003906 1.851562 319.300781 1.5 318.363281 C 1.265625 318.011719 1.03125 317.660156 0.796875 317.191406 C 0.328125 315.902344 -0.0234375 314.496094 -0.0234375 313.089844 L -0.0234375 11.332031 C -0.0234375 9.925781 0.328125 8.519531 0.796875 7.230469 C 0.914062 6.996094 1.03125 6.761719 1.148438 6.527344 C 1.617188 5.355469 2.320312 4.300781 3.257812 3.246094 C 3.492188 3.128906 3.609375 2.894531 3.84375 2.777344 C 4.195312 2.425781 4.546875 2.074219 4.898438 1.839844 C 5.132812 1.605469 5.601562 1.605469 5.835938 1.488281 C 6.773438 0.902344 7.828125 0.433594 9 0.199219 C 9.585938 -0.0351562 10.171875 -0.152344 10.757812 -0.152344 C 11.109375 -0.269531 11.34375 -0.386719 11.695312 -0.386719 L 222.28125 -0.386719 C 228.726562 -0.386719 234 4.886719 234 11.332031 L 234 77.308594 C 234 83.871094 228.726562 89.027344 222.28125 89.027344 C 215.71875 89.027344 210.5625 83.871094 210.5625 77.308594 Z M 210.5625 77.308594 " fill-opacity="1" fill-rule="nonzero"/><path fill="#000000" d="M 374.039062 166.863281 C 374.050781 166.828125 374.085938 166.816406 374.097656 166.78125 C 374.695312 165.375 375.035156 163.828125 375.035156 162.199219 C 375.035156 160.570312 374.695312 159.023438 374.097656 157.617188 C 374.085938 157.582031 374.050781 157.570312 374.039062 157.535156 C 373.429688 156.140625 372.574219 154.898438 371.507812 153.84375 C 371.484375 153.820312 371.472656 153.785156 371.449219 153.761719 L 318.082031 102.28125 C 313.429688 97.804688 306.023438 97.921875 301.511719 102.574219 C 297.011719 107.226562 297.152344 114.65625 301.804688 119.144531 L 334.277344 150.46875 L 220.324219 150.46875 C 213.84375 150.46875 208.605469 155.71875 208.605469 162.1875 C 208.605469 168.65625 213.84375 173.90625 220.324219 173.90625 L 334.277344 173.90625 L 301.804688 205.230469 C 297.152344 209.71875 297.011719 217.148438 301.511719 221.800781 C 303.808594 224.191406 306.878906 225.386719 309.949219 225.386719 C 312.878906 225.386719 315.808594 224.296875 318.082031 222.105469 L 371.449219 170.625 C 371.472656 170.601562 371.484375 170.566406 371.507812 170.542969 C 372.5625 169.5 373.429688 168.257812 374.039062 166.863281 Z M 374.039062 166.863281 " fill-opacity="1" fill-rule="nonzero"/></svg>